<?xml version="1.0" encoding="utf-8"?>
<!-- Generator: Adobe Illustrator 16.2.1, SVG Export Plug-In . SVG Version: 6.00 Build 0)  -->
<!DOCTYPE svg PUBLIC "-//W3C//DTD SVG 1.1//EN" "http://www.w3.org/Graphics/SVG/1.1/DTD/svg11.dtd" [
	<!ENTITY ns_extend "http://ns.adobe.com/Extensibility/1.0/">
	<!ENTITY ns_ai "http://ns.adobe.com/AdobeIllustrator/10.0/">
	<!ENTITY ns_graphs "http://ns.adobe.com/Graphs/1.0/">
	<!ENTITY ns_vars "http://ns.adobe.com/Variables/1.0/">
	<!ENTITY ns_imrep "http://ns.adobe.com/ImageReplacement/1.0/">
	<!ENTITY ns_sfw "http://ns.adobe.com/SaveForWeb/1.0/">
	<!ENTITY ns_custom "http://ns.adobe.com/GenericCustomNamespace/1.0/">
	<!ENTITY ns_adobe_xpath "http://ns.adobe.com/XPath/1.0/">
]>
<svg version="1.1" id="Layer_2" xmlns:x="&ns_extend;" xmlns:i="&ns_ai;" xmlns:graph="&ns_graphs;"
	 xmlns="http://www.w3.org/2000/svg" xmlns:xlink="http://www.w3.org/1999/xlink" x="0px" y="0px" width="48px" height="48px"
	 viewBox="0 0 48 48" style="enable-background:new 0 0 48 48;" xml:space="preserve">
<style type="text/css">
<![CDATA[
	.st0{fill:#652D86;}
]]>
</style>
<metadata>
	<sfw  xmlns="&ns_sfw;">
		<slices></slices>
		<sliceSourceBounds  height="39.8" width="39.806" x="4.097" y="-164.632" bottomLeftOrigin="true"></sliceSourceBounds>
	</sfw>
</metadata>
<g>
	<path class="st0" d="M43.027,38.945c1.166-1.168,1.169-3.076,0-4.244l-5.845-5.848c-1.169-1.166-3.079-1.166-4.244,0.002
		l-2.229,2.227l-0.214,0.215c-1.166,1.168-3.076,1.168-4.242,0l-9.547-9.545c-1.166-1.168-1.166-3.078,0-4.244l0.214-0.213
		l2.229-2.229c1.167-1.168,1.168-3.078,0.001-4.244l-5.848-5.848c-1.168-1.166-3.076-1.166-4.243,0.002L7.954,6.08
		c-7.172,7.172-4.01,16.242,6.719,26.971l0.287,0.273c10.727,10.727,19.797,13.891,26.969,6.719L43.027,38.945"/>
</g>
</svg>
